<svg width="31" height="29" viewBox="0 0 31 29" fill="none" xmlns="http://www.w3.org/2000/svg">
<path d="M21.3757 13.7083H19.2507V19.375L23.5007 22.2083L24.5632 20.4658L21.3757 18.3125V13.7083ZM20.6673 8.75L0.833984 0.25V10.1667L13.584 13L0.833984 15.8333V25.75L11.1332 21.3442C12.2948 25.5092 16.1198 28.5833 20.6673 28.5833C26.1357 28.5833 30.584 24.135 30.584 18.6667C30.584 13.1983 26.1357 8.75 20.6673 8.75ZM20.6673 25.75C16.7715 25.75 13.6123 22.605 13.584 18.7092V18.61C13.6123 14.7283 16.7715 11.5692 20.6673 11.5692C24.5773 11.5692 27.7507 14.7425 27.7507 18.6525C27.7507 22.5625 24.5773 25.75 20.6673 25.75Z" fill="#84818A"/>
</svg>
