<svg width="28" height="26" viewBox="0 0 28 26" fill="none" xmlns="http://www.w3.org/2000/svg">
<path d="M25.75 21.5V22.9167C25.75 24.475 24.475 25.75 22.9167 25.75H3.08333C1.51083 25.75 0.25 24.475 0.25 22.9167V3.08333C0.25 1.525 1.51083 0.25 3.08333 0.25H22.9167C24.475 0.25 25.75 1.525 25.75 3.08333V4.5H13C11.4275 4.5 10.1667 5.775 10.1667 7.33333V18.6667C10.1667 20.225 11.4275 21.5 13 21.5H25.75ZM13 18.6667H27.1667V7.33333H13V18.6667ZM18.6667 15.125C17.4908 15.125 16.5417 14.1758 16.5417 13C16.5417 11.8242 17.4908 10.875 18.6667 10.875C19.8425 10.875 20.7917 11.8242 20.7917 13C20.7917 14.1758 19.8425 15.125 18.6667 15.125Z" fill="#DCB529"/>
</svg>
