<svg width="757" height="276" viewBox="0 0 757 276" fill="none" xmlns="http://www.w3.org/2000/svg">
<path d="M88.0429 45.6031C78.6879 56.0791 73.2559 63.0381 71.7471 66.4802C70.2382 69.7726 69.4837 72.3168 69.4837 74.1127C69.4837 78.1534 71.219 80.1738 74.6894 80.1738C80.7249 80.1738 87.1376 77.8541 93.9275 73.2147L60.6568 98.806C55.074 102.697 50.321 104.643 46.3979 104.643C40.6642 104.643 37.7974 100.153 37.7974 91.1735C37.7974 82.9424 40.966 73.6637 47.3033 63.3374C53.6405 53.1608 64.5799 43.1338 80.1213 33.2564C95.2101 23.3791 111.28 18.4404 128.33 18.4404C154.132 18.4404 167.033 31.8347 167.033 58.6232C167.033 72.5413 162.657 87.8811 153.905 104.643C141.533 128.588 124.105 149.016 101.623 165.927C79.1406 182.689 58.1672 191.069 38.7027 191.069C12.9009 190.92 0 177.525 0 150.886C0 139.213 2.18787 128.513 6.56361 118.785C11.0902 109.057 15.6169 100.752 20.1435 93.8673C24.821 86.8335 27.1598 80.9969 27.1598 76.3575C27.1598 71.7182 26.4808 66.2557 25.1228 59.9701L40.966 110.479C42.1731 113.472 42.7766 116.316 42.7766 119.01C42.7766 122.452 41.7959 126.118 39.8343 130.009C36.9675 138.091 35.534 146.546 35.534 155.376C35.534 170.94 40.1361 178.797 49.3403 178.947C58.5444 178.947 69.9364 171.464 83.5163 156.499C96.6435 141.832 108.036 124.023 117.692 103.071C127.5 82.1193 132.404 64.1605 132.404 49.1949C132.404 34.5285 127.877 27.1953 118.824 27.1953C109.469 27.1953 99.2086 33.3313 88.0429 45.6031Z" fill="#3E3E3E"/>
<path d="M144.302 185.682C139.021 182.09 136.381 175.131 136.381 164.805C136.381 154.478 140.379 144.376 148.376 134.499C154.261 127.316 160.975 121.03 168.52 115.642C176.064 110.255 183.458 105.99 190.7 102.847C193.265 101.799 195.83 100.901 198.395 100.153C196.434 97.9081 194.548 95.4387 192.737 92.7449C187.154 82.5683 184.287 73.8882 184.137 66.7047C184.438 59.5212 187.758 53.3104 194.095 48.0724C201.036 42.2358 209.033 39.3175 218.086 39.3175C227.743 39.3175 235.74 42.0862 242.077 47.6235C248.415 51.9635 254.526 54.1335 260.41 54.1335C266.898 54.1335 276.404 49.569 288.928 40.4399L265.163 67.1536C258.373 71.9427 251.961 74.3372 245.925 74.3372C239.889 74.3372 234.684 70.1468 230.308 61.766C225.631 52.9363 219.746 48.5214 212.654 48.5214C204.205 48.5214 199.98 52.5621 199.98 60.6436C199.98 67.6774 203.299 74.861 209.938 82.1941C213.409 86.6838 218.69 91.3232 225.782 96.1122C229.101 98.5067 231.892 100.377 234.156 101.724C239.437 105.615 242.077 110.629 242.077 116.765C242.077 125.595 238.381 135.771 230.987 147.295C224.046 159.118 214.314 169.369 201.79 178.049C189.568 186.729 176.818 191.069 163.54 191.069C156.298 191.069 149.885 189.273 144.302 185.682ZM192.511 116.989C186.475 122.976 180.817 131.057 175.536 141.234C170.858 151.41 168.52 159.941 168.52 166.825C168.52 175.954 171.236 180.518 176.668 180.518C181.798 180.518 187.456 177.376 193.642 171.09C199.678 164.954 204.28 158.369 207.449 151.335C212.277 140.71 214.691 132.03 214.691 125.295C214.691 119.309 211.598 113.472 205.412 107.785C201.489 109.282 197.188 112.35 192.511 116.989Z" fill="#3E3E3E"/>
<path d="M311.158 120.806C306.028 120.806 299.992 123.799 293.051 129.785C286.111 135.771 280.301 143.03 275.624 151.56C271.248 160.09 269.06 167.049 269.06 172.437C269.06 177.825 271.776 180.518 277.208 180.518C282.338 180.518 288.374 177.825 295.315 172.437C302.256 167.049 308.14 160.09 312.969 151.56C317.344 143.03 319.532 135.771 319.532 129.785C319.532 123.799 316.741 120.806 311.158 120.806ZM231.037 242.252C229.075 246.143 225.756 248.088 221.078 248.088H192.787C197.766 247.939 201.085 245.993 202.745 242.252L266.797 110.255C268.759 106.364 272.078 104.418 276.756 104.418H305.047C300.369 104.568 297.05 106.513 295.088 110.255L286.262 128.662C295.315 119.683 303.463 113.023 310.705 108.683C318.401 104.044 325.568 101.724 332.207 101.724C336.733 101.724 340.581 102.772 343.75 104.867C349.031 108.459 351.671 114.221 351.671 122.152C351.671 134.125 347.597 145.05 339.449 154.927C333.565 161.961 326.85 168.247 319.306 173.784C311.762 179.172 304.368 183.362 297.125 186.355C289.581 189.498 282.414 191.069 275.624 191.069C266.269 191.069 261.591 187.178 261.591 179.396L231.037 242.252Z" fill="#3E3E3E"/>
<path d="M415.56 113.622C412.844 113.622 409.676 115.343 406.054 118.785C402.433 122.078 399.34 126.193 396.775 131.132C394.662 135.921 393.606 140.036 393.606 143.478C393.606 146.921 394.964 148.642 397.68 148.642C400.396 148.642 403.565 146.921 407.186 143.478C410.958 140.036 414.052 135.921 416.466 131.132C418.729 126.193 419.861 122.003 419.861 118.561C419.861 115.268 418.427 113.622 415.56 113.622ZM423.708 106.663C424.614 107.86 425.444 109.057 426.198 110.255C428.009 106.364 431.253 104.418 435.93 104.418H464.222C459.242 104.568 456.074 106.214 454.716 109.357L427.556 166.376C425.896 169.668 425.066 172.287 425.066 174.233C425.066 176.478 426.877 177.6 430.498 177.6C433.818 177.6 438.118 176.178 443.399 173.335C448.68 170.492 458.865 164.206 473.954 154.478C453.131 172.287 440.004 182.314 434.572 184.559C425.217 188.899 417.975 191.069 412.844 191.069C402.282 191.069 397.001 186.43 397.001 177.151C397.152 172.362 398.284 167.947 400.396 163.907C391.192 172.886 382.893 179.621 375.5 184.11C367.804 188.75 360.637 191.069 353.998 191.069C347.812 191.069 342.757 189.498 338.834 186.355C335.665 183.661 334.081 181.192 334.081 178.947C334.081 176.553 335.439 174.607 338.155 173.11L367.125 157.397C364.108 160.24 362.523 164.056 362.372 168.845C362.523 174.682 364.259 177.6 367.578 177.6C371.803 177.6 380.328 172.736 393.154 163.009C396.926 159.716 400.396 156.05 403.565 152.009L403.791 151.56C393.531 156.798 385.685 159.417 380.253 159.417C374.821 159.417 370.596 158.145 367.578 155.601C364.56 153.057 363.052 149.989 363.052 146.397C363.052 141.159 365.39 135.023 370.068 127.989C374.594 121.254 380.705 115.193 388.401 109.806C396.096 104.418 404.168 101.724 412.618 101.724C416.994 101.724 420.691 103.371 423.708 106.663Z" fill="#3E3E3E"/>
<path d="M498.437 200.273C482.895 207.008 473.314 213.218 469.693 218.905C466.071 224.742 464.261 229.905 464.261 234.395C464.261 239.932 466.147 242.701 469.919 242.701C475.653 242.701 480.556 238.286 484.63 229.456L498.437 200.273ZM489.836 171.988C495.117 171.988 501.228 168.995 508.169 163.009C515.11 157.022 520.919 149.764 525.596 141.234C530.123 132.703 532.386 125.37 532.386 119.234C532.386 113.248 529.595 110.255 524.012 110.255C518.882 110.255 512.771 113.323 505.679 119.459C498.738 125.445 492.929 132.703 488.252 141.234C483.876 149.764 481.688 157.022 481.688 163.009C481.688 168.995 484.404 171.988 489.836 171.988ZM534.65 181.192L533.859 184.166L532.445 186.972L529.67 192.641L518.58 214.865C515.261 221.899 510.13 228.184 503.19 233.721C494.589 240.306 485.988 244.796 477.388 247.19C470.145 249.585 462.978 250.782 455.886 250.782C444.268 250.782 438.459 246.667 438.459 238.436C438.459 233.647 439.666 228.633 442.08 223.395C450.53 206.634 471.126 194.96 503.869 188.375L515.638 163.458C506.283 172.736 497.833 179.621 490.289 184.11C482.744 188.75 475.653 191.069 469.014 191.069C464.487 191.069 460.564 190.022 457.244 187.926C451.812 184.185 449.096 178.423 449.096 170.641C449.096 159.118 453.321 148.193 461.771 137.866C467.505 130.833 474.144 124.547 481.688 119.01C489.383 113.622 496.852 109.432 504.095 106.438C511.488 103.296 518.656 101.724 525.596 101.724C534.951 101.724 539.629 105.615 539.629 113.398L540.987 110.255C542.948 106.364 546.268 104.418 550.945 104.418H579.011C574.635 104.568 571.542 106.214 569.731 109.357L534.65 181.192Z" fill="#3E3E3E"/>
<path d="M751.652 78.3517C756.411 92.2697 746.777 104.816 730.765 108.392C723.449 110.036 726.093 113.849 730.873 113.014C732.811 112.652 736.467 110.262 738.185 108.951C727.731 123.28 722.911 124.49 715.852 125.859C708.74 127.203 702.104 129.222 702.653 131.169C703.27 133.539 709.144 131.894 714.456 129.471C717.769 127.97 720.064 127.117 722.129 127.335C716.844 130.555 712.303 135.157 709.395 138.344C703.629 144.611 690.916 149.293 684.895 148.259C677.211 146.992 670.653 147.413 670.254 151.281C670.031 153.336 676.657 153.338 680.335 152.329C684.014 151.321 690.611 150.526 694.876 150.241C689.471 152.295 686.512 154.022 684.231 155.274C677.023 159.253 671.623 159.154 665.589 157.722C660.553 156.546 655.845 154.083 654.465 156.658C653.031 159.208 659.066 160.64 661.13 160.858C663.195 161.077 673.376 161.909 676.516 160.786C669.854 163.577 659.438 168.256 653.897 167.178C648.277 166.13 641.852 164.977 641.378 166.722C640.869 168.973 645.951 169.908 649.345 169.946C652.818 169.955 658.86 170.084 662.055 168.986C657.157 171.793 651.98 173.493 648.239 175.78C644.499 178.067 634.488 180.579 627.298 176.663C622.858 174.19 617.644 172.542 616.848 174.99C615.997 177.413 619.338 178.994 622.984 179.342C626.629 179.69 630.243 180.678 632.55 180.941C624.038 182.76 617.113 184.125 611.635 185.623C604.649 187.548 598.835 187.065 592.908 184.114C589.671 182.449 584.682 181.883 584.218 183.893C583.754 185.903 586.9 186.482 590.5 187.071C594.1 187.66 603.001 188.564 604.748 189.618C600.359 190.173 595.716 189.569 591.486 190.066C587.28 190.509 579.399 188.957 575.885 183.181C573.222 178.837 569.38 178.204 566.261 178.422C573.02 180.705 578.091 188.232 574.407 193.681C574.381 186.026 567.868 180.066 561.873 178.978C569.076 183.292 568.589 188.493 563.838 190.125C566.077 185.393 564.156 180.863 556.41 180.157C560.915 182.919 562.172 186.038 561.792 188.151C558.366 182.612 553.59 179.726 548.946 179.839C553.836 182.189 555.71 183.823 555.516 186.675C551.571 183.121 548.317 180.207 540.83 183.08C533.343 185.953 507.553 194.106 500.294 196.626C495.176 194.629 492.855 193.968 489.717 194.373C494.455 192.342 503.429 191.516 507.711 190.193C512.017 188.816 532.056 182.756 542.824 175.885C549.227 171.801 552.363 165.974 552.985 163.905C552.972 167.361 552.637 169.234 551.361 171.725C556.052 166.799 558.523 160.278 559.153 156.906C560.131 161.204 559.199 166.66 557.177 169.204C560.465 166.189 564.825 157.128 565.142 154.724C566.303 158.909 565.754 163.102 564.261 165.495C567.614 162.052 570.008 154.843 570.181 152.896C571.7 155.872 571.352 158.915 570.329 160.998C574.536 155.983 577.357 145.701 581.909 142.933C586.406 140.141 590.812 138.548 594.28 136.855C597.747 135.163 602.586 132.198 604.704 130.873C600.786 134.974 598.361 136.683 595.742 138.956C591.569 142.614 592.737 150.068 598.081 142.434C602.508 136.082 605.524 132.944 607.811 131.108C610.098 129.271 620.182 125.03 624.142 122.123C621.162 126.324 616.621 128.639 613.751 130.603C610.881 132.566 609.56 135.298 611.949 136.382C614.338 137.466 618.141 133.901 619.931 130.86C621.697 127.873 629.192 119.843 635.963 118.67C642.735 117.497 646.996 116.361 649.328 114.284C647.182 117.099 645.78 119.01 641.808 120.8C637.811 122.644 629.696 125.885 631.417 129.279C633.114 132.727 640.066 126.019 642.166 124.163C649.399 117.844 665.222 108.107 671.549 107.189C665.566 111.071 654.368 118.596 656.269 121.027C658.225 123.482 665.2 117.438 669.048 113.632C672.921 109.771 682.342 101.832 687.646 100.712C681.027 106.265 679.441 108.289 681.557 109.967C683.673 111.646 687.196 106.975 690.041 103.497C692.86 100.073 696.462 93.8039 706.701 90.9387C701.944 94.7241 698.482 98.1176 699.245 99.313C699.983 100.563 702.498 98.3726 704.098 96.747C705.698 95.1214 712.736 87.7987 718.122 87.4996C714.852 89.4774 713.593 90.9313 712.661 92.533C720.429 87.7627 726.201 87.051 731.798 87.4355C737.78 88.1252 749.075 85.6741 751.652 78.3517ZM695.227 118.915C688.197 124.935 666.091 137.634 657.252 140.024C639.389 144.917 603.236 153.919 565.501 171.937C568.526 171.35 572.114 170.823 580.388 167.523C603.122 158.309 647.393 146.916 658.914 143.261C670.41 139.66 687.687 129.472 698.178 120.058C705.873 113.164 719.291 104.949 726.316 101.082C714.858 103.459 702.257 112.895 695.227 118.915Z" fill="#3E3E3E"/>
</svg>
