<svg width="25" height="25" viewBox="0 0 25 25" fill="none" xmlns="http://www.w3.org/2000/svg">
<path fill-rule="evenodd" clip-rule="evenodd" d="M12.5007 0C11.1821 0 9.89318 0.390993 8.79685 1.12354C7.70052 1.85608 6.84604 2.89727 6.34146 4.11544C5.83687 5.33362 5.70485 6.67406 5.96209 7.96727C6.21932 9.26048 6.85426 10.4484 7.78661 11.3807C8.71896 12.3131 9.90685 12.948 11.2001 13.2052C12.4933 13.4625 13.8337 13.3304 15.0519 12.8259C16.2701 12.3213 17.3112 11.4668 18.0438 10.3705C18.7763 9.27414 19.1673 7.98521 19.1673 6.66667C19.1673 4.89856 18.4649 3.20286 17.2147 1.95262C15.9645 0.702379 14.2688 0 12.5007 0ZM12.5007 1.66667C13.4896 1.66667 14.4563 1.95991 15.2785 2.50932C16.1008 3.05873 16.7416 3.83962 17.1201 4.75325C17.4985 5.66688 17.5975 6.67221 17.4046 7.64212C17.2117 8.61202 16.7355 9.50294 16.0362 10.2022C15.3369 10.9015 14.446 11.3777 13.4761 11.5706C12.5062 11.7635 11.5009 11.6645 10.5872 11.2861C9.67361 10.9076 8.89271 10.2668 8.34331 9.44452C7.7939 8.62227 7.50065 7.65557 7.50065 6.66667C7.50065 5.34058 8.02744 4.06882 8.96512 3.13113C9.9028 2.19345 11.1746 1.66667 12.5007 1.66667Z" fill="black"/>
<path fill-rule="evenodd" clip-rule="evenodd" d="M12.5 15.166C7.78583 15.166 3.70167 16.1452 1.66667 17.516C1.19779 17.7721 0.799965 18.1407 0.509021 18.5888C0.218077 19.0368 0.0431515 19.5502 0 20.0827C0.0431515 20.6152 0.218077 21.1286 0.509021 21.5766C0.799965 22.0247 1.19779 22.3933 1.66667 22.6493C3.70167 24.0202 7.78583 24.9993 12.5 24.9993C17.2142 24.9993 21.2983 24.0202 23.3333 22.6493C23.8022 22.3933 24.2 22.0247 24.491 21.5766C24.7819 21.1286 24.9568 20.6152 25 20.0827C24.9568 19.5502 24.7819 19.0368 24.491 18.5888C24.2 18.1407 23.8022 17.7721 23.3333 17.516C21.2983 16.1452 17.2142 15.166 12.5 15.166ZM12.5 16.8327C15.596 16.7333 18.6791 17.2749 21.5558 18.4235C22.0784 18.6522 22.5563 18.9716 22.9675 19.3668C23.0807 19.4487 23.173 19.5563 23.2365 19.6807C23.3001 19.8052 23.3333 19.9429 23.3333 20.0827C23.3333 20.2224 23.3001 20.3602 23.2365 20.4846C23.173 20.6091 23.0807 20.7166 22.9675 20.7985C22.5563 21.1938 22.0784 21.5132 21.5558 21.7418C18.6791 22.8904 15.596 23.4321 12.5 23.3327C9.40402 23.4321 6.32092 22.8904 3.44417 21.7418C2.92164 21.5132 2.44371 21.1938 2.0325 20.7985C1.91925 20.7166 1.82705 20.6091 1.76346 20.4846C1.69987 20.3602 1.66672 20.2224 1.66672 20.0827C1.66672 19.9429 1.69987 19.8052 1.76346 19.6807C1.82705 19.5563 1.91925 19.4487 2.0325 19.3668C2.44371 18.9716 2.92164 18.6522 3.44417 18.4235C6.32092 17.2749 9.40402 16.7333 12.5 16.8327Z" fill="black"/>
</svg>
